<svg xmlns="http://www.w3.org/2000/svg" viewBox="0 0 398.15 226.63">
  <defs>
    <style>
      .cls-1, .cls-8 {
        fill: #2e384d;
      }

      .cls-2, .cls-4 {
        fill: #5965e0;
      }

      .cls-3, .cls-5 {
        fill: #a9b3ff;
      }

      .cls-10, .cls-11, .cls-3, .cls-4, .cls-6, .cls-8 {
        fill-rule: evenodd;
      }

      .cls-6 {
        fill: #4757c6;
      }

      .cls-11, .cls-7 {
        fill: #fff;
      }

      .cls-10, .cls-9 {
        fill: #2aa9e0;
      }
    </style>
  </defs>
  <g id="Camada_2" data-name="Camada 2">
    <g id="OBJECTS">
      <g>
        <g>
          <path class="cls-1" d="M383,133.94c-6.63-3.34-14.56-3.2-21.77-1.38-4.6,1.16-9.12,3-13.87,3s-10-2.35-11.34-6.89c-1.44-4.78,1.85-9.71,5.63-13,7.69-6.63,18-9.94,24.94-17.3a29.47,29.47,0,0,0-11.53-48c-23.45-8.33-49,14.37-73,7.72-1.78-.49-3.66-1.26-4.59-2.85a6.59,6.59,0,0,1-.18-5.25c2.93-9.65,14.35-15.8,14.84-25.88.28-5.48-3-10.61-7.05-14.27-28.06-25.18-68.72,4.77-97.33,14.22-47,15.55-95,28.54-142.19,43.76C28,73.52,7.56,82.38,4.29,100.61c-2.13,11.88,4.77,24.32,15.16,30.45,5.07,3,11.3,5.11,14,10.37,4.13,8.17-3.28,17.54-11.1,22.29s-17.37,8.53-20.93,17c-2.35,5.56-1.43,12,.89,17.6,8.53,20.42,33.37,29.36,55.47,28.27,18.41-.91,36-7,53.93-11.62.49-1.4,1-2.78,1.55-4.15l-.61-.32a3.94,3.94,0,0,1-1.64-5.32l9.38-17.81a3.94,3.94,0,0,1,5.32-1.64l1.52.8a99.61,99.61,0,0,1,18.87-18.39,3.94,3.94,0,0,1,1.63-3.38l3.37-2.42-7.19-12.16-32.62,19.29-5.83-9.85,1.92-63,8.22-4.86h0l7.21-4.26L149.67,133l8.75-5.18,6,10.19-8.75,5.17,6.56,11.11L164,153a3.93,3.93,0,0,1,5.49.9l.72,1A98.81,98.81,0,0,1,256.32,163a3.94,3.94,0,0,1,4.25.31l1.23.92,3.93-6.4L233.44,138l6-9.76L296,100.53l3.7,2.27h0l11.57,7.11L283.63,155l8.66,5.32-6.2,10.08-8.66-5.32-4.63,7.54,3.83,2.89a3.94,3.94,0,0,1,1,5.08,98.82,98.82,0,0,1,8.87,11.19l2.32-.92A3.94,3.94,0,0,1,294,193l4.87,12.19a4,4,0,0,1-2.2,5.12l-.14,0a100.57,100.57,0,0,1,3.36,9.73c16.6.32,33.09-.73,49.4-4.2,11.57-2.47,23.22-6.32,32.15-14.07,10.06-8.73,15.78-21.91,16.64-35.21C398.88,154,394.38,139.66,383,133.94Z"/>
          <polygon class="cls-1" points="118.83 108.7 117.59 151.21 117.91 151.74 137.98 139.88 119.36 108.38 118.83 108.7"/>
          <polygon class="cls-1" points="290.68 116.36 252.52 135.12 252.19 135.65 272.06 147.86 291.21 116.69 290.68 116.36"/>
        </g>
        <g>
          <circle class="cls-2" cx="199.07" cy="126.6" r="34.47" transform="translate(-31.21 177.85) rotate(-45)"/>
          <path class="cls-3" d="M164.88,122.31c10.23,1.45,27.42-5.85,32.93-6.92,11.2-2.17,22.71.42,34.13.79a34.4,34.4,0,0,0-3.17-7.08c-4.2.18-8.63-.55-12.86-.68-8-.23-16,1.88-24.08,1.4-3.71-.23-12.06-3.48-19.66-4.76A34.32,34.32,0,0,0,164.88,122.31Z"/>
          <path class="cls-3" d="M199.07,92.13A34.44,34.44,0,0,0,189,93.63c4.32,2.46,13,3.35,15,3.62,3.61.48,7.53.66,10.63-1.26l.13-.08A34.27,34.27,0,0,0,199.07,92.13Z"/>
          <path class="cls-3" d="M233.53,127.08a66.65,66.65,0,0,0-30.45-.52c-5.44,1.18-10.71,3.05-16.11,4.38a83.79,83.79,0,0,1-20.8,2.43l-.9,0a34.39,34.39,0,0,0,9.61,17.79,118.36,118.36,0,0,0,23.59-11.43c6.48-4.08,13-8.94,20.6-9.64,4.73-.43,9.39.8,14.08,1.77A35.41,35.41,0,0,0,233.53,127.08Z"/>
          <path class="cls-3" d="M231.7,137.7c-4.67-.69-13,3.42-15.07,5.16-1.83,1.54-3.37,3.43-5.34,4.79-2.51,1.72-5.53,2.47-8.47,3.23q-8.91,2.3-17.68,5.1a3.17,3.17,0,0,0-1.91,1.23,34.47,34.47,0,0,0,27.25,1.92c3.57-5.11,5.71-11.72,11.37-14.12,1-.41,4.32-.89,7.36-1.68A33.43,33.43,0,0,0,231.7,137.7Z"/>
        </g>
        <path class="cls-4" d="M223,205.16c-.45,3.46-5.81,5.6-12,4.79s-10.78-4.27-10.32-7.73,5.81-5.61,12-4.8S223.49,201.7,223,205.16Z"/>
        <g>
          <circle class="cls-5" cx="132.92" cy="67.85" r="12.75"/>
          <path class="cls-4" d="M132.92,55.1a12.68,12.68,0,0,0-6.24,1.64,2.1,2.1,0,0,0,.31.41c1.29,1.31,4.36,1.36,6.07,1.44a20.93,20.93,0,0,0,7.42-1A12.64,12.64,0,0,0,132.92,55.1Z"/>
          <path class="cls-4" d="M142.67,61.92a7.44,7.44,0,0,0,1.23-.52,12.6,12.6,0,0,0-1.1-1.6L139,61.5a18.79,18.79,0,0,1-3,1.16,18,18,0,0,1-4.75.42,94.35,94.35,0,0,1-9.8-.7,12.69,12.69,0,0,0-1,8.17,11.47,11.47,0,0,0,1.88-1.09,25.39,25.39,0,0,1,5.28-2.31Z"/>
          <path class="cls-4" d="M144.63,62.83c-1,.88-1.72,2-2.79,2.89a15.11,15.11,0,0,1-3.74,2.14c-.94.37-1.93.64-2.83,1.1a1.33,1.33,0,0,0-.78.78c-.14.65.62,1.12,1.27,1.27a14.58,14.58,0,0,0,4,.18l4.71-.2a8.12,8.12,0,0,0,.85-.07,12.91,12.91,0,0,0,.39-3.07A12.56,12.56,0,0,0,144.63,62.83Z"/>
          <path class="cls-4" d="M133.25,67.51a29.27,29.27,0,0,0-6.58,2.14,33.23,33.23,0,0,1-4.24,1.86,7.85,7.85,0,0,1-1.66.21,12.77,12.77,0,0,0,4,6l.38-.48c1.9-2.53,3.2-5.73,6-7.3a9.22,9.22,0,0,0,1.48-.89A1.62,1.62,0,0,0,133.25,67.51Z"/>
          <path class="cls-4" d="M144.43,73.3a3,3,0,0,0-.42,0l-8.17.46A9.45,9.45,0,0,0,131,74.91a9.36,9.36,0,0,0-2.49,3c-.23.38-.65.9-1,1.45a12.49,12.49,0,0,0,5.17,1.24c.33-.41.63-.86.95-1.29A11.26,11.26,0,0,1,141.21,75c.8-.09,1.61-.09,2.4-.17A11.85,11.85,0,0,0,144.43,73.3Z"/>
          <path class="cls-6" d="M144.62,72.91a13.38,13.38,0,0,0,.76-2.37,79.18,79.18,0,0,1-11.31,3A78.49,78.49,0,0,1,122.35,75a11.76,11.76,0,0,0,1.59,1.92,82.51,82.51,0,0,0,10.51-1.39A81.34,81.34,0,0,0,144.62,72.91Z"/>
          <path class="cls-7" d="M120.41,76c-4.57,0-8.29-.73-8.72-2.92s2.3-4.22,8-6.39a1,1,0,0,1,1.29.58,1,1,0,0,1-.58,1.29c-5.8,2.2-6.83,3.85-6.78,4.14.22,1.09,7.42,2.36,20.42-.16a70.21,70.21,0,0,0,14.16-4.13c4.21-1.84,4.89-3.11,4.85-3.35s-1.71-1.48-8.25-1.29a1,1,0,0,1-1-1,1,1,0,0,1,1-1c6.39-.19,9.85.79,10.26,2.91.35,1.82-1.61,3.64-6,5.56a71.58,71.58,0,0,1-14.58,4.26A80,80,0,0,1,120.41,76Z"/>
        </g>
        <g>
          <circle class="cls-5" cx="330.22" cy="91.6" r="10.27" transform="translate(-11.37 64.11) rotate(-10.9)"/>
          <path class="cls-4" d="M335.11,82.57a10.18,10.18,0,0,0-5-1.23,1.4,1.4,0,0,0,.06.41c.41,1.42,2.56,2.64,3.75,3.35a16.77,16.77,0,0,0,5.63,2.15A10.19,10.19,0,0,0,335.11,82.57Z"/>
          <path class="cls-4" d="M339.4,91.14a5.64,5.64,0,0,0,1.08.1,10.34,10.34,0,0,0-.17-1.56L337,89.43a15.06,15.06,0,0,1-2.59-.34,14.59,14.59,0,0,1-3.52-1.52c-2.33-1.29-4.5-2.75-6.67-4.25a10.13,10.13,0,0,0-3.81,5.42,9.32,9.32,0,0,0,1.75-.06,20.61,20.61,0,0,1,4.63.4Z"/>
          <path class="cls-4" d="M340.45,92.54c-1,.24-2,.79-3.09,1a11.54,11.54,0,0,1-3.47.08c-.81-.1-1.61-.28-2.43-.3a1,1,0,0,0-.84.25c-.36.41,0,1,.41,1.39a11.82,11.82,0,0,0,2.73,1.65l3.42,1.66.62.28a10.23,10.23,0,0,0,1.45-2A10.09,10.09,0,0,0,340.45,92.54Z"/>
          <path class="cls-4" d="M330.59,91.49a23.83,23.83,0,0,0-5.49-1,27,27,0,0,1-3.71-.31,6.14,6.14,0,0,1-1.26-.49,10.28,10.28,0,0,0,.58,5.79l.45-.19c2.32-1.06,4.46-2.83,7-2.89a7.19,7.19,0,0,0,1.39-.06A1.3,1.3,0,0,0,330.59,91.49Z"/>
          <path class="cls-4" d="M336.29,99.88l-.3-.18L330,96.89a5.72,5.72,0,0,0-6.82.12c-.31.18-.81.39-1.3.63a10.44,10.44,0,0,0,3.18,2.86c.4-.17.79-.38,1.18-.56a9.11,9.11,0,0,1,7.1-.13c.59.25,1.17.56,1.76.8A10.62,10.62,0,0,0,336.29,99.88Z"/>
        </g>
        <g>
          <ellipse class="cls-2" cx="158.94" cy="181.1" rx="15.75" ry="7" transform="translate(-64.76 91.57) rotate(-26.92)"/>
          <path class="cls-8" d="M156.77,177.86c7-3.56,13.95-4.21,16.53-1.77A3.59,3.59,0,0,0,173,174c-1.75-3.45-9.45-3.05-17.21.89s-12.63,9.92-10.87,13.37a3.2,3.2,0,0,0,.68.88C146,185.66,150.43,181.08,156.77,177.86Z"/>
        </g>
        <g>
          <path class="cls-4" d="M267.85,185.84c-1.38,2.2-6.51,1.47-11.46-1.62s-7.85-7.39-6.47-9.59,6.5-1.48,11.45,1.62S269.22,183.64,267.85,185.84Z"/>
          <path class="cls-8" d="M260,177.86c4.48,2.8,7.26,6.57,6.75,8.89a2.4,2.4,0,0,0,1.11-.91c1.37-2.2-1.53-6.5-6.48-9.59s-10.08-3.82-11.45-1.62a1.93,1.93,0,0,0-.27.7C251.79,174.39,256,175.33,260,177.86Z"/>
        </g>
        <path class="cls-8" d="M212.71,197.42c-6.16-.81-11.52,1.34-12,4.8a3.14,3.14,0,0,0,0,.75c1.34-2.79,6.17-4.41,11.64-3.69,5.71.75,10.09,3.79,10.33,7a3.75,3.75,0,0,0,.34-1.11C223.49,201.7,218.87,198.23,212.71,197.42Z"/>
        <circle class="cls-9" cx="59.69" cy="112.02" r="3.25"/>
        <path class="cls-10" d="M248.56,23A1.46,1.46,0,1,1,250,21.56,1.45,1.45,0,0,1,248.56,23Z"/>
        <circle class="cls-9" cx="269.23" cy="48.6" r="1.46"/>
        <circle class="cls-9" cx="25.69" cy="96.06" r="1.46"/>
        <path class="cls-11" d="M234.19,74.23a1.88,1.88,0,1,1-1.87-1.88A1.87,1.87,0,0,1,234.19,74.23Z"/>
        <path class="cls-11" d="M313.07,160.48a1.88,1.88,0,1,1-1.88-1.88A1.88,1.88,0,0,1,313.07,160.48Z"/>
        <path class="cls-11" d="M368.44,163.6a1.88,1.88,0,1,1-1.87-1.88A1.88,1.88,0,0,1,368.44,163.6Z"/>
        <path class="cls-11" d="M73.07,191a1.88,1.88,0,1,1-1.88-1.88A1.88,1.88,0,0,1,73.07,191Z"/>
        <path class="cls-11" d="M181.44,55.1a1.88,1.88,0,1,1-1.87-1.88A1.88,1.88,0,0,1,181.44,55.1Z"/>
        <polygon class="cls-11" points="158.68 100.72 161.19 102.14 158.63 103.48 157.2 105.98 155.87 103.43 153.36 102 155.92 100.66 157.35 98.16 158.68 100.72"/>
        <polygon class="cls-11" points="276.56 74.38 278.19 75.31 276.52 76.19 275.59 77.82 274.72 76.15 273.09 75.22 274.75 74.35 275.69 72.71 276.56 74.38"/>
        <polygon class="cls-11" points="83.72 152.8 85.36 153.73 83.69 154.6 82.75 156.24 81.88 154.57 80.25 153.63 81.92 152.76 82.85 151.13 83.72 152.8"/>
        <polygon class="cls-11" points="84.66 86.16 86.29 87.1 84.62 87.97 83.69 89.6 82.82 87.94 81.18 87 82.85 86.13 83.78 84.5 84.66 86.16"/>
        <polygon class="cls-11" points="34.69 185.6 36.32 186.53 34.66 187.41 33.72 189.04 32.85 187.37 31.22 186.44 32.88 185.57 33.82 183.93 34.69 185.6"/>
        <polygon class="cls-11" points="331.53 139.5 333.16 140.43 331.49 141.3 330.56 142.94 329.69 141.27 328.06 140.33 329.72 139.46 330.66 137.83 331.53 139.5"/>
        <polygon class="cls-11" points="351.69 205.27 353.32 206.2 351.65 207.07 350.72 208.71 349.85 207.04 348.22 206.11 349.88 205.23 350.82 203.6 351.69 205.27"/>
      </g>
    </g>
  </g>
</svg>
